<?xml version="1.0" encoding="utf-8"?>
<!-- Generator: Adobe Illustrator 21.0.2, SVG Export Plug-In . SVG Version: 6.00 Build 0)  -->
<!DOCTYPE svg PUBLIC "-//W3C//DTD SVG 1.1//EN" "http://www.w3.org/Graphics/SVG/1.1/DTD/svg11.dtd">
<svg version="1.1" id="Layer_1" xmlns="http://www.w3.org/2000/svg" xmlns:xlink="http://www.w3.org/1999/xlink" x="0px" y="0px"
	 viewBox="0 0 526 165.7" style="enable-background:new 0 0 526 165.7;" xml:space="preserve">
<style type="text/css">
	.st0{fill:#9003FF;}
	.st1{fill:#FAFF6A;}
</style>
<title>Asset 1</title>
<g id="Layer_2">
	<g id="Layer_1-2">
		<path class="st0" d="M223.1,163.7V153c-6,8-15.3,12.7-25.3,12.7c-20.2,0-35.1-15.3-35.1-41.3c0-25.5,14.7-41.4,35.1-41.4
			c10,0.1,19.4,4.8,25.3,12.9v-41h17.1v108.8H223.1z M223.1,140.1v-31.3c-3.9-5.9-12.2-10.6-20.4-10.6c-13.5,0-22.2,10.9-22.2,26.3
			c0,15.2,8.6,26.1,22.2,26.1C210.9,150.5,219.2,145.9,223.1,140.1z"/>
		<path class="st0" d="M391.7,124.2c0-22.8,16.6-41.3,40-41.3c23.7,0,38.8,18.1,38.8,42.9v4.1h-60.9c1.3,11.9,10.3,21.7,25.1,21.7
			c7.7,0,16.8-3.1,22.4-8.6l7.8,11.2c-7.8,7.5-19.4,11.4-32,11.4C409.4,165.7,391.7,149.2,391.7,124.2z M431.7,97
			c-14.7,0-21.4,11.2-22.2,20.9h44.4C453.6,108.6,447.2,97,431.7,97L431.7,97z"/>
		<path class="st0" d="M311.7,163.7l-16.8-23.9l-1.1-1.6l-0.9-1.2l-1.6-2.3l-20.6,29h-19.1l28.9-40.5l-27.2-38.3h19.3l26.3,37.1
			l0.8-1.7l-3.7-15.3l14-20.1h19.2l-27.2,38.3l29,40.5L311.7,163.7z"/>
		<path class="st0" d="M350.3,145.4V99.9h-13.1v-15h13V63.4h17.1v21.5h16v15h-16v41.3c0,5.4,2.6,9.3,7.5,9.3c3.3,0,6.4-1.3,7.7-2.8
			l4.1,12.9c-3.1,2.9-8.2,5.1-16.1,5.1C357.3,165.7,350.3,158.5,350.3,145.4z"/>
		<path class="st0" d="M483.2,163.7V84.9h17.1v11.6c5.9-7.5,15.3-13.4,25.6-13.4v17c-1.8-0.4-3.6-0.5-5.4-0.5
			c-7.2,0-16.8,4.9-20.2,10.4v53.7L483.2,163.7z"/>
		<path class="st1" d="M50,165.4H36.4v-6.8c0-16.4-13.3-29.6-29.6-29.6H0v-13.6h6.8c23.9,0,43.2,19.4,43.2,43.2V165.4z"/>
		<path class="st1" d="M78.5,165.4H64.9v-6.8c0-32.1-26-58.1-58.1-58.1H0V86.9h6.8c39.6,0,71.7,32.1,71.7,71.7V165.4z"/>
		<path class="st1" d="M136.7,165.4h-13.6V45.2l-31.5,0.3v-32h-78v45.9c52.1,3.6,92.5,46.9,92.6,99.2v6.8H92.6v-6.8
			c-0.1-47.4-38.4-85.7-85.8-85.8H0V0h105.2v31.8l31.5-0.3V165.4z"/>
	</g>
</g>
</svg>
