<svg xmlns="http://www.w3.org/2000/svg" viewBox="0 0 525.97 165.68"><defs><style>.cls-1{fill:#fff;}.cls-2{fill:#faff6a;}</style></defs><title>Asset 1</title><g id="Layer_2" data-name="Layer 2"><g id="Layer_1-2" data-name="Layer 1"><path class="cls-1" d="M223.08,163.72V153a31.91,31.91,0,0,1-25.29,12.73c-20.23,0-35.08-15.33-35.08-41.28C162.72,98.94,177.4,83,197.8,83a31.61,31.61,0,0,1,25.29,12.89v-41h17.13V163.72Zm0-23.66V108.74c-3.92-5.87-12.24-10.6-20.4-10.6-13.54,0-22.19,10.93-22.19,26.27,0,15.17,8.65,26.1,22.19,26.1C210.85,150.5,219.17,145.94,223.08,140.06Z"/><path class="cls-1" d="M391.74,124.24c0-22.84,16.64-41.28,40-41.28,23.66,0,38.83,18.11,38.83,42.91v4.08H409.68c1.3,11.92,10.28,21.7,25.13,21.7,7.67,0,16.8-3.1,22.35-8.64L465,154.25c-7.83,7.51-19.42,11.42-32,11.42C409.36,165.68,391.74,149.2,391.74,124.24Zm40-27.24c-14.68,0-21.37,11.25-22.19,20.88H453.9C453.57,108.58,447.21,97,431.71,97Z"/><path class="cls-1" d="M311.68,163.72l-16.78-23.9-1.12-1.6-.85-1.21-1.64-2.34-20.56,29H251.64l28.88-40.46L253.27,84.92h19.25L298.79,122l.84-1.68L295.92,105l14-20.1h19.25l-27.25,38.34,29,40.46Z"/><path class="cls-1" d="M350.26,145.45V99.93H337.21v-15h13.05V63.38h17.13V84.92h16v15h-16V141.2c0,5.38,2.61,9.3,7.5,9.3,3.27,0,6.37-1.3,7.67-2.77l4.08,12.89c-3.1,2.93-8.16,5.06-16.15,5.06C357.28,165.68,350.26,158.5,350.26,145.45Z"/><path class="cls-1" d="M483.22,163.72V84.92h17.13V96.5C506.23,89,515.69,83.12,526,83.12v17a24.92,24.92,0,0,0-5.39-.49c-7.18,0-16.8,4.89-20.23,10.44v53.68Z"/><path class="cls-2" d="M50,165.44H36.43v-6.8A29.66,29.66,0,0,0,6.8,129H0v-13.6H6.8A43.27,43.27,0,0,1,50,158.64Z"/><path class="cls-2" d="M78.54,165.44H64.94v-6.8A58.21,58.21,0,0,0,6.8,100.5H0V86.9H6.8a71.82,71.82,0,0,1,71.74,71.74Z"/><path class="cls-2" d="M136.72,165.44h-13.6V45.22l-31.5.34v-32h-78V59.48a99.53,99.53,0,0,1,92.6,99.16v6.8H92.6v-6.8A85.9,85.9,0,0,0,6.8,72.84H0V0H105.22V31.82l31.5-.34Z"/></g></g></svg>